static pose
version=1
nRows=1
nColumns=57
inDegrees=no
endheader
time	/jointset/ground_pelvis/pelvis_tilt/value	/jointset/ground_pelvis/pelvis_tilt/speed	/jointset/ground_pelvis/pelvis_tx/value	/jointset/ground_pelvis/pelvis_tx/speed	/jointset/ground_pelvis/pelvis_ty/value	/jointset/ground_pelvis/pelvis_ty/speed	/jointset/hip_l/hip_flexion_l/value	/jointset/hip_l/hip_flexion_l/speed	/jointset/hip_r/hip_flexion_r/value	/jointset/hip_r/hip_flexion_r/speed	/jointset/knee_l/knee_angle_l/value	/jointset/knee_l/knee_angle_l/speed	/jointset/knee_r/knee_angle_r/value	/jointset/knee_r/knee_angle_r/speed	/jointset/ankle_l/ankle_angle_l/value	/jointset/ankle_l/ankle_angle_l/speed	/jointset/ankle_r/ankle_angle_r/value	/jointset/ankle_r/ankle_angle_r/speed	/jointset/back/lumbar_extension/value	/jointset/back/lumbar_extension/speed	/forceset/hamstrings_r/activation	/forceset/hamstrings_r/normalized_tendon_force	/forceset/bifemsh_r/activation	/forceset/bifemsh_r/normalized_tendon_force	/forceset/glut_max_r/activation	/forceset/glut_max_r/normalized_tendon_force	/forceset/iliopsoas_r/activation	/forceset/iliopsoas_r/normalized_tendon_force	/forceset/rect_fem_r/activation	/forceset/rect_fem_r/normalized_tendon_force	/forceset/vasti_r/activation	/forceset/vasti_r/normalized_tendon_force	/forceset/gastroc_r/activation	/forceset/gastroc_r/normalized_tendon_force	/forceset/soleus_r/activation	/forceset/soleus_r/normalized_tendon_force	/forceset/tib_ant_r/activation	/forceset/tib_ant_r/normalized_tendon_force	/forceset/hamstrings_l/activation	/forceset/hamstrings_l/normalized_tendon_force	/forceset/bifemsh_l/activation	/forceset/bifemsh_l/normalized_tendon_force	/forceset/glut_max_l/activation	/forceset/glut_max_l/normalized_tendon_force	/forceset/iliopsoas_l/activation	/forceset/iliopsoas_l/normalized_tendon_force	/forceset/rect_fem_l/activation	/forceset/rect_fem_l/normalized_tendon_force	/forceset/vasti_l/activation	/forceset/vasti_l/normalized_tendon_force	/forceset/gastroc_l/activation	/forceset/gastroc_l/normalized_tendon_force	/forceset/soleus_l/activation	/forceset/soleus_l/normalized_tendon_force	/forceset/tib_ant_l/activation	/forceset/tib_ant_l/normalized_tendon_force
      0.50000000	     -0.03537416	      0.00000000	      0.51787251	      0.00000000	      1.04441733	      0.00000000	     -0.07889392	      0.00000000	     -0.05120055	      0.00000000	      0.13385897	      0.00000000	      0.06012134	      0.00000000	      0.02902393	      0.00000000	      0.03886169	      0.00000000	      0.10635119	      0.00000000	      0.01000000	      0.50000000	      0.01000000	      0.50000000	      0.01000000	      0.50000000	      0.01000000	      0.50000000	      0.01000000	      0.50000000	      0.01000000	      0.50000000	      0.01000000	      0.50000000	      0.01000000	      0.50000000	      0.01000000	      0.50000000	      0.01000000	      0.50000000	      0.01000000	      0.50000000	      0.01000000	      0.50000000	      0.01000000	      0.50000000	      0.01000000	      0.50000000	      0.01000000	      0.50000000	      0.01000000	      0.50000000	      0.01000000	      0.50000000	      0.01000000	      0.50000000
